# xmcd CD database file
#
# Track frame offsets:
#	187
#	24445
#	47435
#	75065
#	90572
#	107497
#	129652
#	146720
#	161140
#	176670
#	196907
#	212637
#	232187
#	249615
#	267555
#	282320
#	297077
#	311720
#
# Disc length: 4381 seconds
#
# Revision: 2
# Processed by: cddbd v1.5.1PL2 Copyright (c) Steve Scherf et al.
# Submitted via: CDex 1.51
#
DISCID=01111b12
DTITLE=Various Artist - 70's&80's Dance[Yellow]
DYEAR=1997
DGENRE=Dance
TTITLE0=B.T.Express - Have Some Fun
TTITLE1=Shalamar - A Night To Remember
TTITLE2=Lakeside - Fantastic Voyage
TTITLE3=Van Mccoy and The Soul Symphony - The Hustle
TTITLE4=Jocelyn Brown - Somebody Else's Guy
TTITLE5=Average White Band - Let's Go Round Again
TTITLE6=Freeez - I.O.U.
TTITLE7=Santa Esmeralda - Don't Let Me Be Misunderstood
TTITLE8=Arabesque - Hello Mr.Monkey
TTITLE9=Genghis Khan - Moskau
TTITLE10=Moulin Rouge - Boys Don't Cry
TTITLE11=Lime - Unexpected Lovers
TTITLE12=Paul Lekakis - Boom Boom (Let's Go Back To My Room)
TTITLE13=Afrika and The Zulu Kings - The Beach
TTITLE14=Hot Gossip - Break Me Into Little Pieces
TTITLE15=Pete Shelley - Telephone Operator
TTITLE16=The Stylistics - Can't Give You Anything (But My Love)
TTITLE17=Boys Town Gang - Can't Take My Eyes Off You
EXTD=YEAR: 1997
EXTT0=
EXTT1=
EXTT2=
EXTT3=
EXTT4=
EXTT5=
EXTT6=
EXTT7=
EXTT8=
EXTT9=
EXTT10=
EXTT11=
EXTT12=
EXTT13=
EXTT14=
EXTT15=
EXTT16=
EXTT17=
PLAYORDER=
